<mxfile host="65bd71144e">
    <diagram id="6K_GYYUFes4X0Ucee6K_" name="04/10 data-preprocessing">
        <mxGraphModel dx="613" dy="524" grid="1" gridSize="10" guides="1" tooltips="1" connect="1" arrows="1" fold="1" page="1" pageScale="1" pageWidth="850" pageHeight="1100" math="0" shadow="0">
            <root>
                <mxCell id="0"/>
                <mxCell id="1" parent="0"/>
                <mxCell id="4" value="" style="edgeStyle=none;html=1;" parent="1" source="2" target="5" edge="1">
                    <mxGeometry relative="1" as="geometry">
                        <mxPoint x="356" y="178" as="targetPoint"/>
                    </mxGeometry>
                </mxCell>
                <mxCell id="2" value="load dataset" style="rounded=0;whiteSpace=wrap;html=1;" parent="1" vertex="1">
                    <mxGeometry x="296" y="38" width="120" height="60" as="geometry"/>
                </mxCell>
                <mxCell id="7" value="" style="edgeStyle=none;html=1;" parent="1" source="5" target="9" edge="1">
                    <mxGeometry relative="1" as="geometry">
                        <mxPoint x="356" y="288" as="targetPoint"/>
                    </mxGeometry>
                </mxCell>
                <mxCell id="5" value="smiles" style="rounded=0;whiteSpace=wrap;html=1;" parent="1" vertex="1">
                    <mxGeometry x="296" y="118" width="120" height="60" as="geometry"/>
                </mxCell>
                <mxCell id="2ZYU74xsNwY0e2k2aNRz-10" value="" style="edgeStyle=none;html=1;" parent="1" source="9" target="2ZYU74xsNwY0e2k2aNRz-9" edge="1">
                    <mxGeometry relative="1" as="geometry"/>
                </mxCell>
                <mxCell id="9" value="canonical smiles" style="rounded=0;whiteSpace=wrap;html=1;" parent="1" vertex="1">
                    <mxGeometry x="296" y="198" width="120" height="60" as="geometry"/>
                </mxCell>
                <mxCell id="2ZYU74xsNwY0e2k2aNRz-12" value="" style="edgeStyle=none;html=1;" parent="1" source="2ZYU74xsNwY0e2k2aNRz-9" target="2ZYU74xsNwY0e2k2aNRz-11" edge="1">
                    <mxGeometry relative="1" as="geometry"/>
                </mxCell>
                <mxCell id="2ZYU74xsNwY0e2k2aNRz-9" value="remove inorganic and mixture" style="rounded=0;whiteSpace=wrap;html=1;" parent="1" vertex="1">
                    <mxGeometry x="296" y="278" width="120" height="60" as="geometry"/>
                </mxCell>
                <mxCell id="2ZYU74xsNwY0e2k2aNRz-15" value="" style="edgeStyle=none;html=1;" parent="1" source="2ZYU74xsNwY0e2k2aNRz-11" target="2ZYU74xsNwY0e2k2aNRz-14" edge="1">
                    <mxGeometry relative="1" as="geometry"/>
                </mxCell>
                <mxCell id="2ZYU74xsNwY0e2k2aNRz-11" value="drop duplicate" style="rounded=0;whiteSpace=wrap;html=1;" parent="1" vertex="1">
                    <mxGeometry x="296" y="358" width="120" height="60" as="geometry"/>
                </mxCell>
                <mxCell id="tIB9VCe-r5A9NjXSACRM-12" value="" style="edgeStyle=none;html=1;strokeWidth=1;" parent="1" source="2ZYU74xsNwY0e2k2aNRz-14" target="tIB9VCe-r5A9NjXSACRM-11" edge="1">
                    <mxGeometry relative="1" as="geometry"/>
                </mxCell>
                <mxCell id="2ZYU74xsNwY0e2k2aNRz-14" value="calculate lipinski" style="rounded=0;whiteSpace=wrap;html=1;" parent="1" vertex="1">
                    <mxGeometry x="296" y="438" width="120" height="60" as="geometry"/>
                </mxCell>
                <mxCell id="tIB9VCe-r5A9NjXSACRM-14" value="" style="edgeStyle=none;html=1;strokeWidth=1;" parent="1" source="tIB9VCe-r5A9NjXSACRM-11" target="tIB9VCe-r5A9NjXSACRM-13" edge="1">
                    <mxGeometry relative="1" as="geometry"/>
                </mxCell>
                <mxCell id="tIB9VCe-r5A9NjXSACRM-16" value="" style="edgeStyle=none;html=1;strokeWidth=1;" parent="1" source="tIB9VCe-r5A9NjXSACRM-11" target="tIB9VCe-r5A9NjXSACRM-15" edge="1">
                    <mxGeometry relative="1" as="geometry"/>
                </mxCell>
                <mxCell id="tIB9VCe-r5A9NjXSACRM-11" value="หา mean +- SD ของ lipinski" style="whiteSpace=wrap;html=1;rounded=0;" parent="1" vertex="1">
                    <mxGeometry x="296" y="518" width="120" height="60" as="geometry"/>
                </mxCell>
                <mxCell id="tIB9VCe-r5A9NjXSACRM-13" value="กราฟ MW VS LogP" style="whiteSpace=wrap;html=1;rounded=0;fillColor=#dae8fc;strokeColor=#6c8ebf;" parent="1" vertex="1">
                    <mxGeometry x="96" y="518" width="120" height="60" as="geometry"/>
                </mxCell>
                <mxCell id="tIB9VCe-r5A9NjXSACRM-15" value="กราฟ HBA VS HBD&amp;nbsp;" style="whiteSpace=wrap;html=1;rounded=0;fillColor=#dae8fc;strokeColor=#6c8ebf;" parent="1" vertex="1">
                    <mxGeometry x="497" y="518" width="120" height="60" as="geometry"/>
                </mxCell>
            </root>
        </mxGraphModel>
    </diagram>
    <diagram id="JtNuCMXNXsZhALKa9q_d" name="11/10 molecular fingerprint">
        <mxGraphModel dx="490" dy="419" grid="1" gridSize="10" guides="1" tooltips="1" connect="1" arrows="1" fold="1" page="1" pageScale="1" pageWidth="850" pageHeight="1100" math="0" shadow="0">
            <root>
                <mxCell id="0"/>
                <mxCell id="1" parent="0"/>
                <mxCell id="r3-uxpTZCLfPG6yNEybn-3" value="" style="edgeStyle=none;html=1;" parent="1" source="r3-uxpTZCLfPG6yNEybn-1" target="r3-uxpTZCLfPG6yNEybn-2" edge="1">
                    <mxGeometry relative="1" as="geometry"/>
                </mxCell>
                <mxCell id="r3-uxpTZCLfPG6yNEybn-1" value="Molecular fingerprint&lt;br&gt;by Pubchem" style="rounded=0;whiteSpace=wrap;html=1;" parent="1" vertex="1">
                    <mxGeometry x="307" y="39" width="170" height="60" as="geometry"/>
                </mxCell>
                <mxCell id="r3-uxpTZCLfPG6yNEybn-5" value="" style="edgeStyle=none;html=1;" parent="1" source="r3-uxpTZCLfPG6yNEybn-2" target="r3-uxpTZCLfPG6yNEybn-4" edge="1">
                    <mxGeometry relative="1" as="geometry"/>
                </mxCell>
                <mxCell id="r3-uxpTZCLfPG6yNEybn-2" value="Install PaDeL-Descriptor" style="rounded=0;whiteSpace=wrap;html=1;" parent="1" vertex="1">
                    <mxGeometry x="307" y="129" width="170" height="60" as="geometry"/>
                </mxCell>
                <mxCell id="r3-uxpTZCLfPG6yNEybn-7" value="" style="edgeStyle=none;html=1;" parent="1" source="r3-uxpTZCLfPG6yNEybn-4" target="r3-uxpTZCLfPG6yNEybn-6" edge="1">
                    <mxGeometry relative="1" as="geometry"/>
                </mxCell>
                <mxCell id="r3-uxpTZCLfPG6yNEybn-4" value="Calculate PubChem หรือ Substructure fingerprint" style="rounded=0;whiteSpace=wrap;html=1;" parent="1" vertex="1">
                    <mxGeometry x="307" y="209" width="170" height="60" as="geometry"/>
                </mxCell>
                <mxCell id="SmG9Pm3M4cOHDVrwg3ex-2" value="" style="edgeStyle=none;html=1;" parent="1" source="r3-uxpTZCLfPG6yNEybn-6" target="SmG9Pm3M4cOHDVrwg3ex-1" edge="1">
                    <mxGeometry relative="1" as="geometry"/>
                </mxCell>
                <mxCell id="r3-uxpTZCLfPG6yNEybn-6" value="PCA (PC1, PC2)" style="rounded=0;whiteSpace=wrap;html=1;" parent="1" vertex="1">
                    <mxGeometry x="307" y="299" width="170" height="60" as="geometry"/>
                </mxCell>
                <mxCell id="SmG9Pm3M4cOHDVrwg3ex-1" value="ได้รูปกราฟ PC1 PC2" style="rounded=0;whiteSpace=wrap;html=1;fillColor=#dae8fc;strokeColor=#6c8ebf;" parent="1" vertex="1">
                    <mxGeometry x="307" y="389" width="170" height="60" as="geometry"/>
                </mxCell>
            </root>
        </mxGraphModel>
    </diagram>
    <diagram id="4sV9bS3o_HYXUxEmJH1B" name="18/10 อ่านโครงสร้าง">
        <mxGraphModel dx="700" dy="599" grid="1" gridSize="10" guides="1" tooltips="1" connect="1" arrows="1" fold="1" page="1" pageScale="1" pageWidth="850" pageHeight="1100" math="0" shadow="0">
            <root>
                <mxCell id="0"/>
                <mxCell id="1" parent="0"/>
                <mxCell id="lm2fJxIAN4VwDmbkC3Tx-4" value="" style="edgeStyle=none;html=1;" parent="1" source="lm2fJxIAN4VwDmbkC3Tx-1" target="lm2fJxIAN4VwDmbkC3Tx-3" edge="1">
                    <mxGeometry relative="1" as="geometry"/>
                </mxCell>
                <mxCell id="lm2fJxIAN4VwDmbkC3Tx-1" value="อ่าน data ว่ามีกี่ตัว โครงสร้างหน้าตาเป็นแบบไหน&amp;nbsp;" style="rounded=0;whiteSpace=wrap;html=1;" parent="1" vertex="1">
                    <mxGeometry x="298" y="74" width="270" height="60" as="geometry"/>
                </mxCell>
                <mxCell id="ImqOlKEsORVZc-OMo7FW-2" value="" style="edgeStyle=none;html=1;strokeWidth=1;" parent="1" source="lm2fJxIAN4VwDmbkC3Tx-3" target="ImqOlKEsORVZc-OMo7FW-1" edge="1">
                    <mxGeometry relative="1" as="geometry"/>
                </mxCell>
                <mxCell id="lm2fJxIAN4VwDmbkC3Tx-3" value="เลือกสารที่มีโครงสร้างใกล้เคียงกัน (50%)" style="rounded=0;whiteSpace=wrap;html=1;" parent="1" vertex="1">
                    <mxGeometry x="298" y="174" width="270" height="60" as="geometry"/>
                </mxCell>
                <mxCell id="ImqOlKEsORVZc-OMo7FW-4" value="" style="edgeStyle=none;html=1;strokeWidth=1;" parent="1" source="ImqOlKEsORVZc-OMo7FW-1" target="ImqOlKEsORVZc-OMo7FW-3" edge="1">
                    <mxGeometry relative="1" as="geometry"/>
                </mxCell>
                <mxCell id="ImqOlKEsORVZc-OMo7FW-1" value="โดยเลือกจากสารที่สนใจ (Sucralose, saccharine, neotame, aspartame, advantame, Ace-K)" style="rounded=0;whiteSpace=wrap;html=1;" parent="1" vertex="1">
                    <mxGeometry x="298" y="274" width="270" height="60" as="geometry"/>
                </mxCell>
                <mxCell id="ImqOlKEsORVZc-OMo7FW-6" value="" style="edgeStyle=none;html=1;strokeWidth=1;" parent="1" source="ImqOlKEsORVZc-OMo7FW-3" target="ImqOlKEsORVZc-OMo7FW-5" edge="1">
                    <mxGeometry relative="1" as="geometry"/>
                </mxCell>
                <mxCell id="ImqOlKEsORVZc-OMo7FW-3" value="เชื่อมข้อมูลทั้งหมดเข้าด้วยกัน" style="rounded=0;whiteSpace=wrap;html=1;" parent="1" vertex="1">
                    <mxGeometry x="298" y="364" width="270" height="60" as="geometry"/>
                </mxCell>
                <mxCell id="ImqOlKEsORVZc-OMo7FW-8" value="" style="edgeStyle=none;html=1;strokeWidth=1;" parent="1" source="ImqOlKEsORVZc-OMo7FW-5" target="ImqOlKEsORVZc-OMo7FW-7" edge="1">
                    <mxGeometry relative="1" as="geometry"/>
                </mxCell>
                <mxCell id="ImqOlKEsORVZc-OMo7FW-5" value="drop NaN" style="rounded=0;whiteSpace=wrap;html=1;" parent="1" vertex="1">
                    <mxGeometry x="298" y="454" width="270" height="60" as="geometry"/>
                </mxCell>
                <mxCell id="ImqOlKEsORVZc-OMo7FW-10" value="" style="edgeStyle=none;html=1;strokeWidth=1;" parent="1" source="ImqOlKEsORVZc-OMo7FW-7" target="ImqOlKEsORVZc-OMo7FW-9" edge="1">
                    <mxGeometry relative="1" as="geometry"/>
                </mxCell>
                <mxCell id="ImqOlKEsORVZc-OMo7FW-7" value="drop duplicate" style="rounded=0;whiteSpace=wrap;html=1;" parent="1" vertex="1">
                    <mxGeometry x="298" y="534" width="270" height="60" as="geometry"/>
                </mxCell>
                <mxCell id="ImqOlKEsORVZc-OMo7FW-14" value="" style="edgeStyle=none;html=1;strokeWidth=1;" parent="1" source="ImqOlKEsORVZc-OMo7FW-9" target="ImqOlKEsORVZc-OMo7FW-13" edge="1">
                    <mxGeometry relative="1" as="geometry"/>
                </mxCell>
                <mxCell id="ImqOlKEsORVZc-OMo7FW-9" value="กำหนด test set และ training set" style="rounded=0;whiteSpace=wrap;html=1;" parent="1" vertex="1">
                    <mxGeometry x="298" y="624" width="270" height="60" as="geometry"/>
                </mxCell>
                <mxCell id="ImqOlKEsORVZc-OMo7FW-12" value="&lt;h1 style=&quot;line-height: 50%;&quot;&gt;&lt;span style=&quot;font-size: 12px; font-weight: 400;&quot;&gt;ลดขนาดฟีเจอร์ลง ทำให้สามารถอธิบายโมเดลได้ดีขึ้น (feature reduction) + ลด bias ได้&amp;nbsp;&lt;/span&gt;&lt;/h1&gt;" style="text;html=1;strokeColor=none;fillColor=none;spacing=5;spacingTop=-20;whiteSpace=wrap;overflow=hidden;rounded=0;" parent="1" vertex="1">
                    <mxGeometry x="453" y="694" width="285" height="50" as="geometry"/>
                </mxCell>
                <mxCell id="ImqOlKEsORVZc-OMo7FW-13" value="" style="rounded=0;whiteSpace=wrap;html=1;" parent="1" vertex="1">
                    <mxGeometry x="298" y="764" width="270" height="60" as="geometry"/>
                </mxCell>
            </root>
        </mxGraphModel>
    </diagram>
    <diagram id="7InpXQRPnmIFId_i5Lgw" name="11/6 @gg colab">
        <mxGraphModel dx="754" dy="645" grid="1" gridSize="10" guides="1" tooltips="1" connect="1" arrows="1" fold="1" page="1" pageScale="1" pageWidth="850" pageHeight="1100" math="0" shadow="0">
            <root>
                <mxCell id="0"/>
                <mxCell id="1" parent="0"/>
                <mxCell id="GrOt7PhAQHySm_SdcuVS-3" value="" style="edgeStyle=none;html=1;fontSize=20;" edge="1" parent="1" source="GrOt7PhAQHySm_SdcuVS-1" target="GrOt7PhAQHySm_SdcuVS-2">
                    <mxGeometry relative="1" as="geometry"/>
                </mxCell>
                <mxCell id="GrOt7PhAQHySm_SdcuVS-1" value="&lt;font style=&quot;font-size: 20px;&quot;&gt;โหลด data (file sweetener) ลงใน gg colab&lt;/font&gt;" style="rounded=0;whiteSpace=wrap;html=1;" vertex="1" parent="1">
                    <mxGeometry x="250" y="50" width="430" height="120" as="geometry"/>
                </mxCell>
                <mxCell id="GrOt7PhAQHySm_SdcuVS-5" value="" style="edgeStyle=none;html=1;fontSize=20;" edge="1" parent="1" source="GrOt7PhAQHySm_SdcuVS-2" target="GrOt7PhAQHySm_SdcuVS-4">
                    <mxGeometry relative="1" as="geometry"/>
                </mxCell>
                <mxCell id="GrOt7PhAQHySm_SdcuVS-2" value="&lt;font style=&quot;font-size: 20px;&quot;&gt;แบ่ง training set และ test set (70:30)&lt;/font&gt;" style="rounded=0;whiteSpace=wrap;html=1;" vertex="1" parent="1">
                    <mxGeometry x="250" y="250" width="430" height="120" as="geometry"/>
                </mxCell>
                <mxCell id="Irym-KNMHSiH3pVf15x0-2" value="" style="edgeStyle=none;html=1;fontSize=20;" edge="1" parent="1" source="GrOt7PhAQHySm_SdcuVS-4" target="Irym-KNMHSiH3pVf15x0-1">
                    <mxGeometry relative="1" as="geometry"/>
                </mxCell>
                <mxCell id="GrOt7PhAQHySm_SdcuVS-4" value="&lt;span style=&quot;font-size: 20px;&quot;&gt;ทำการเทรนโมเดล &amp;gt;&amp;gt;&amp;gt; random forest, linear regression&lt;/span&gt;" style="rounded=0;whiteSpace=wrap;html=1;" vertex="1" parent="1">
                    <mxGeometry x="250" y="450" width="430" height="120" as="geometry"/>
                </mxCell>
                <mxCell id="Irym-KNMHSiH3pVf15x0-5" value="" style="edgeStyle=none;html=1;fontSize=20;" edge="1" parent="1" source="Irym-KNMHSiH3pVf15x0-1" target="Irym-KNMHSiH3pVf15x0-4">
                    <mxGeometry relative="1" as="geometry"/>
                </mxCell>
                <mxCell id="Irym-KNMHSiH3pVf15x0-1" value="&lt;span style=&quot;font-size: 20px;&quot;&gt;ทดสอบความแม่นยำของโมเดล &amp;gt;&amp;gt;&amp;gt; &lt;br&gt;5 cross validation&lt;/span&gt;" style="rounded=0;whiteSpace=wrap;html=1;" vertex="1" parent="1">
                    <mxGeometry x="250" y="650" width="430" height="120" as="geometry"/>
                </mxCell>
                <mxCell id="Irym-KNMHSiH3pVf15x0-3" value="Parameter&lt;br&gt;- sensitivity&lt;br&gt;- accuracy&lt;br&gt;- precision&lt;br&gt;- specificity" style="text;html=1;strokeColor=none;fillColor=none;align=center;verticalAlign=middle;whiteSpace=wrap;rounded=0;fontSize=20;" vertex="1" parent="1">
                    <mxGeometry x="540" y="695" width="410" height="30" as="geometry"/>
                </mxCell>
                <mxCell id="eQsHqqPLHEu0BggdND9t-2" value="" style="edgeStyle=none;html=1;fontSize=20;" edge="1" parent="1" source="Irym-KNMHSiH3pVf15x0-4" target="eQsHqqPLHEu0BggdND9t-1">
                    <mxGeometry relative="1" as="geometry"/>
                </mxCell>
                <mxCell id="Irym-KNMHSiH3pVf15x0-4" value="&lt;span style=&quot;font-size: 20px;&quot;&gt;ได้ทั้งหมด 12 parameter ต่อ 1 model&lt;/span&gt;" style="rounded=0;whiteSpace=wrap;html=1;" vertex="1" parent="1">
                    <mxGeometry x="250" y="850" width="430" height="120" as="geometry"/>
                </mxCell>
                <mxCell id="eQsHqqPLHEu0BggdND9t-4" value="" style="edgeStyle=none;html=1;fontSize=20;" edge="1" parent="1" source="eQsHqqPLHEu0BggdND9t-1" target="eQsHqqPLHEu0BggdND9t-3">
                    <mxGeometry relative="1" as="geometry"/>
                </mxCell>
                <mxCell id="eQsHqqPLHEu0BggdND9t-1" value="&lt;span style=&quot;font-size: 20px;&quot;&gt;ROC curve&lt;/span&gt;" style="rounded=0;whiteSpace=wrap;html=1;" vertex="1" parent="1">
                    <mxGeometry x="760" y="850" width="430" height="120" as="geometry"/>
                </mxCell>
                <mxCell id="eQsHqqPLHEu0BggdND9t-3" value="&lt;span style=&quot;font-size: 20px;&quot;&gt;ROC curve&lt;/span&gt;" style="rounded=0;whiteSpace=wrap;html=1;" vertex="1" parent="1">
                    <mxGeometry x="1270" y="850" width="430" height="120" as="geometry"/>
                </mxCell>
            </root>
        </mxGraphModel>
    </diagram>
</mxfile>